# AST/ASF file generated using VICON BodyLanguage
# -----------------------------------------------
:version 1.10
:name VICON
:units
  mass 1.0
  length 0.45
  angle deg
:documentation
   .ast/.asf automatically generated from VICON data using
   VICON BodyBuilder and BodyLanguage model FoxedUp or BRILLIANT.MOD
:root
   order TX TY TZ RX RY RZ
   axis XYZ
   position 0 0 0  
   orientation 0 0 0 
:bonedata
  begin
     id 1 
     name lhipjoint
     direction 0.575328 -0.747301 0.332475 
     length 2.40933 
     axis 0 0 0  XYZ
  end
  begin
     id 2 
     name lfemur
     direction 0.34202 -0.939693 0  
     length 7.31453  
     axis 0 0 20  XYZ
    dof rx ry rz
    limits (-160.0 20.0)
           (-70.0 70.0)
           (-60.0 70.0)
  end
  begin
     id 3 
     name ltibia
     direction 0.34202 -0.939693 0   
     length 7.82185   
     axis 0 0 20   XYZ
    dof rx
    limits (-10.0 170.0)
  end
  begin
     id 4 
     name lfoot
     direction 0.0795993 -0.218697 0.972541   
     length 2.19173   
     axis -90 7.62852e-016 20   XYZ
    dof rx rz
    limits (-45.0 90.0)
           (-70.0 20.0)
  end
  begin
     id 5 
     name ltoes
     direction 1.53537e-011 -4.21894e-011 1   
     length 1.10023   
     axis -90 7.62852e-016 20   XYZ
    dof rx
    limits (-90.0 20.0)
  end
  begin
     id 6 
     name rhipjoint
     direction -0.513884 -0.783789 0.348708   
     length 2.29716  
     axis 0 0 0  XYZ 
  end
  begin
     id 7 
     name rfemur
     direction -0.34202 -0.939693 0   
     length 7.59573   
     axis 0 0 -20   XYZ
    dof rx ry rz
    limits (-160.0 20.0)
           (-70.0 70.0)
           (-70.0 60.0)
  end
  begin
     id 8 
     name rtibia
     direction -0.34202 -0.939693 0   
     length 7.66402   
     axis 0 0 -20   XYZ
    dof rx
    limits (-10.0 170.0)
 end
 begin
     id 9 
     name rfoot
     direction -0.137793 -0.378584 0.915253   
     length 2.27056  
     axis -90 -7.62852e-016 -20   XYZ
    dof rx rz
    limits (-45.0 90.0)
           (-20.0 70.0)
  end
  begin
     id 10 
     name rtoes
     direction -1.53493e-011 -4.22159e-011 1   
     length 1.11766   
     axis -90 -7.62852e-016 -20   XYZ
    dof rx
    limits (-90.0 20.0)
  end
  begin
     id 11 
     name lowerback
     direction -0.00732775 0.998356 -0.05685   
     length 2.16513   
     axis 0 0 0   XYZ
    dof rx ry rz
    limits (-20.0 45.0)
           (-30.0 30.0)
           (-30.0 30.0)
  end
  begin
     id 12 
     name upperback
     direction 0.0218081 0.999627 -0.0164647   
     length 2.16755   
     axis 0 0 0   XYZ
    dof rx ry rz
    limits (-20.0 45.0)
           (-30.0 30.0)
           (-30.0 30.0)
  end
  begin
     id 13 
     name thorax
     direction 0.02365 0.999661 0.0108914   
     length 2.16932   
     axis 0 0 0   XYZ
    dof rx ry rz
    limits (-20.0 45.0)
           (-30.0 30.0)
           (-30.0 30.0)
  end
  begin
     id 14 
     name lowerneck
     direction -0.0523929 0.978385 0.200044   
     length 1.63877   
     axis 0 0 0   XYZ
    dof rx ry rz
    limits (-20.0 45.0)
           (-30.0 30.0)
           (-30.0 30.0)
  end
  begin
     id 15 
     name upperneck
     direction 0.0448674 0.981321 -0.187074   
     length 1.69014   
     axis 0 0 0   XYZ
    dof rx ry rz
    limits (-20.0 45.0)
           (-30.0 30.0)
           (-30.0 30.0)
  end
  begin
     id 16
     name head
     direction 0.0199089 0.996118 -0.0857429  
     length 1.70094  
     axis 0 0 0   XYZ
    dof rx ry rz
    limits (-20.0 45.0)
           (-30.0 30.0)
           (-30.0 30.0)
  end
  begin
     id 17 
     name lclavicle
     direction 0.940366 0.30191 -0.156722  
     length 3.37521  
     axis 0 0 0   XYZ
    dof ry rz
    limits (-20.0 10.0)
           (0.0 20.0)
  end
  begin
     id 18 
     name lhumerus
     direction 1 -4.4897e-011 -1.7911e-027   
     length 5.25287   
     axis 180 -30 -90   XYZ
    dof rx ry rz
    limits (-60.0 90.0)
           (-90.0 90.0)
           (-90.0 90.0)
  end
  begin
     id 19
     name lradius
     direction 1 -4.48951e-011 1.04424e-027   
     length 3.51014   
     axis 180 -30 -90   XYZ
    dof rx
    limits (-10.0 170.0)
  end
  begin
     id 20
     name lwrist
     direction 1 -4.48997e-011 -9.5942e-028   
     length 1.75507   
     axis 8.48502e-016 90 90   XYZ
    dof ry
    limits (-180.0 0.0)
 end
  begin
     id 21 
     name lhand
     direction 1 -4.48831e-011 -1.90777e-027   
     length 0.706179   
     axis 1.22306e-015 90 90   XYZ
    dof rx rz
    limits (-90.0 90.0)
           (-45.0 45.0)
  end
  begin
     id 22 
     name lfingers
     direction 1 -4.49108e-011 -3.85244e-027   
     length 0.569339   
     axis 2.44611e-015 90 90   XYZ
    dof rx
    limits (0.0 90.0)
  end
  begin
     id 23
     name lthumb
     direction 0.707107 -6.34953e-011 0.707107   
     length 0.817461   
     axis -90 45 -1.62303e-014   XYZ
    dof rx rz
    limits (-45.0 45.0)
           (-45.0 45.0)
  end
  begin
     id 24 
     name rclavicle
     direction -0.905329 0.382405 -0.184787   
     length 3.30787  
     axis 0 0 0   XYZ 
    dof ry rz
    limits (-10.0 20.0)
           (-20.0 0.0)
  end
  begin
     id 25 
     name rhumerus
     direction -1 -4.48953e-011 -9.15316e-029  
     length 5.28721   
     axis 180 30 90   XYZ
    dof rx ry rz
    limits (-90.0 60.0)
           (-90.0 90.0)
           (-90.0 90.0)
  end
  begin
     id 26 
     name rradius
     direction -1 -4.48987e-011 9.37824e-028   
     length 3.50544   
     axis 180 30 90   XYZ
    dof rx
    limits (-10.0 170.0)
  end
  begin
     id 27 
     name rwrist
     direction -1 -4.48967e-011 -9.58414e-028   
     length 1.75272   
     axis 8.48502e-016 -90 -90   XYZ
    dof ry
    limits (-180.0 0.0)
  end
  begin
     id 28
     name rhand
     direction -1 -4.48904e-011 -1.91266e-027   
     length 0.884996   
     axis 1.22306e-015 -90 -90   XYZ
    dof rx rz
    limits (-90.0 90.0)
           (-45.0 45.0)
  end
  begin
     id 29
     name rfingers
     direction -1 -4.4909e-011 -3.85015e-027   
     length 0.713507   
     axis 2.44611e-015 -90 -90   XYZ
    dof rx
    limits (0.0 90.0)
  end
  begin
     id 30
     name rthumb
     direction -0.707107 -6.34853e-011 0.707107   
     length 1.02446   
     axis -90 -45 1.62303e-014   XYZ
    dof rx rz
    limits (-45.0 45.0)
           (-45.0 45.0)
  end
:hierarchy
  begin
    root lhipjoint rhipjoint lowerback
    lhipjoint lfemur
    lfemur ltibia
    ltibia lfoot
    lfoot ltoes
    rhipjoint rfemur
    rfemur rtibia
    rtibia rfoot
    rfoot rtoes
    lowerback upperback
    upperback thorax
    thorax lowerneck lclavicle rclavicle
    lowerneck upperneck
    upperneck head
    lclavicle lhumerus
    lhumerus lradius
    lradius lwrist
    lwrist lhand lthumb
    lhand lfingers
    rclavicle rhumerus
    rhumerus rradius
    rradius rwrist
    rwrist rhand rthumb
    rhand rfingers
  end

#!OML:ASF F:\twosubjects\two\Thursday\Session 1\justin.ASF
:FULLY-SPECIFIED
:DEGREES
208
root 9.17804 17.7611 -19.8754 -31.2958 -86.0636 37.9641
lowerback 0.357906 0.586184 -1.67645
upperback -1.09223 0.774618 2.60127
thorax -1.38013 0.412464 3.60313
lowerneck -22.0399 7.40631 -2.39684
upperneck 21.3737 10.2147 3.35671
head 10.1204 4.89582 3.07217
rclavicle 9.0447e-015 6.36111e-015
rhumerus -37.6268 -30.6335 -29.8455
rradius 36.8931
rwrist -16.1355
rhand -22.6804 7.04535
rfingers 7.12502
rthumb 3.75172 -22.9014
lclavicle 9.0447e-015 6.36111e-015
lhumerus -40.5838 33.6265 38.5798
lradius 28.0373
lwrist -3.53337
lhand -5.60357 50.4427
lfingers 7.12502
lthumb 20.2134 79.411
rfemur -16.329 -4.72815 19.9832
rtibia 43.1251
rfoot -19.0913 -0.221852
rtoes -19.5375
lfemur -16.3419 7.13279 -21.7132
ltibia 35.6698
lfoot -10.0544 -11.6553
ltoes -15.1984
209
root 9.20027 17.5955 -19.8876 -28.8463 -86.0741 35.6365
lowerback 0.420403 0.56872 -1.54509
upperback -1.2239 0.753229 2.4829
thorax -1.54519 0.403487 3.40571
lowerneck -21.4768 7.46855 -2.10464
upperneck 20.9544 10.1846 3.35397
head 9.88651 4.92015 2.97601
rclavicle -3.67752e-015 -9.54166e-015
rhumerus -38.5617 -30.7361 -32.24
rradius 37.1175
rwrist -16.9769
rhand -22.5832 7.0055
rfingers 7.12502
rthumb 3.84557 -22.9395
lclavicle -3.67752e-015 -9.54166e-015
lhumerus -40.7771 32.866 41.1035
lradius 28.6565
lwrist -2.4872
lhand -5.5113 49.7847
lfingers 7.12502
lthumb 20.3021 78.7436
rfemur -16.2911 -4.4839 20.5309
rtibia 43.5519
rfoot -21.9204 -1.6936
rtoes -18.9544
lfemur -16.3605 7.08912 -21.7883
ltibia 36.3563
lfoot -13.4535 -9.05438
ltoes -17.6488
210
root 9.22352 17.4418 -19.8967 -26.0237 -85.9704 32.6729
lowerback 0.725769 0.521154 -1.48379
upperback -1.20683 0.689803 2.42823
thorax -1.6931 0.372814 3.31335
lowerneck -21.3578 7.54924 -1.85042
upperneck 20.9544 10.1892 3.43244
head 9.87448 4.95277 2.95895
rclavicle -1.07344e-014 1.43125e-014
rhumerus -39.1974 -31.1281 -34.5497
rradius 37.194
rwrist -18.0116
rhand -22.3797 7.08249
rfingers 7.12502
rthumb 4.04212 -22.8589
lclavicle -1.07344e-014 1.43125e-014
lhumerus -40.7564 32.4162 43.7187
lradius 29.0901
lwrist -1.53786
lhand -5.70292 49.1112
lfingers 7.12502
lthumb 20.1179 78.0896
rfemur -16.0952 -3.93081 20.9562
rtibia 43.9142
rfoot -24.7903 -2.27626
rtoes -16.7654
lfemur -16.1682 6.99353 -21.7903
ltibia 36.9272
lfoot -16.6368 -7.76513
ltoes -17.1825
211
root 9.25352 17.2931 -19.9021 -23.7317 -85.8812 30.1974
lowerback 1.13287 0.520002 -1.48984
upperback -1.1743 0.687424 2.47175
thorax -1.88898 0.374235 3.35888
lowerneck -21.2282 7.5271 -1.81163
upperneck 20.9863 10.1249 3.50086
head 9.86269 4.9342 2.96272
rclavicle 4.87022e-015 5.56597e-015
rhumerus -39.7012 -31.7388 -36.648
rradius 36.9988
rwrist -18.4373
rhand -22.2085 7.30057
rfingers 7.12502
rthumb 4.20741 -22.6376
lclavicle 4.87022e-015 5.56597e-015
lhumerus -40.5125 31.8814 46.7674
lradius 29.2464
lwrist -0.623934
lhand -5.40201 48.3287
lfingers 7.12502
lthumb 20.4071 77.2764
rfemur -16.0249 -3.55883 21.261
rtibia 44.2273
rfoot -27.3165 -2.76704
rtoes -11.9703
lfemur -16.0364 6.55332 -21.7481
ltibia 37.2631
lfoot -19.4543 -7.18118
ltoes -13.8006
212
root 9.28522 17.1479 -19.9067 -23.053 -85.9795 29.1384
lowerback 1.83493 0.631657 -1.43525
upperback -1.15379 0.836928 2.55159
thorax -2.27369 0.453266 3.40013
lowerneck -21.0418 7.47874 -1.87217
upperneck 21.1174 10.1033 3.38654
head 9.88026 4.90145 2.92635
rclavicle -5.46658e-015 -1.66979e-014
rhumerus -40.4279 -32.3197 -38.6372
rradius 36.7813
rwrist -18.1299
rhand -22.0263 7.17358
rfingers 7.12502
rthumb 4.38341 -22.7611
lclavicle -5.46658e-015 -1.66979e-014
lhumerus -40.1288 31.1999 50.1344
lradius 29.1875
lwrist 0.425537
lhand -6.20673 46.2624
lfingers 7.12502
lthumb 19.6336 75.291
rfemur -15.7887 -3.24311 21.5036
rtibia 44.5522
rfoot -29.7158 -2.89237
rtoes -6.24862
lfemur -15.7655 5.99964 -21.6326
ltibia 37.5353
lfoot -21.4379 -6.85246
ltoes -6.12714
213
root 9.32098 17.0062 -19.9091 -17.8279 -86.2258 23.3051
lowerback 2.82314 0.726158 -0.832997
upperback -1.05484 0.983306 2.65075
thorax -2.72934 0.520137 3.14729
lowerneck -21.1638 7.42308 -2.15938
upperneck 21.4406 10.0759 3.57592
head 9.99041 4.87975 3.05142
rclavicle 1.12313e-014 8.74653e-015
rhumerus -41.1055 -32.9424 -40.8401
rradius 36.5466
rwrist -17.7907
rhand -21.681 7.02251
rfingers 7.12502
rthumb 4.71683 -22.905
lclavicle 1.12313e-014 8.74653e-015
lhumerus -39.8433 31.1453 53.0716
lradius 29.0555
lwrist 0.756449
lhand -4.68741 48.1044
lfingers 7.12502
lthumb 21.0937 76.977
rfemur -15.2764 -2.82032 22.1378
rtibia 44.9191
rfoot -31.8579 -2.76001
rtoes -1.59844
lfemur -15.4072 5.71094 -21.1465
ltibia 38.0703
lfoot -23.2847 -6.41291
ltoes 0.856625
214
root 9.36264 16.8656 -19.9038 -10.0877 -86.6016 15.0842
lowerback 3.68613 0.847483 0.102286
upperback -0.953924 1.18961 2.59922
thorax -3.10298 0.6062 2.54561
lowerneck -21.2762 7.30044 -2.57194
upperneck 21.5963 9.85135 4.31752
head 10.0059 4.83275 3.35176
rclavicle -2.98177e-015 -1.51076e-014
rhumerus -41.6868 -33.9452 -43.2799
rradius 35.9669
rwrist -17.2979
rhand -21.1664 6.97938
rfingers 7.12502
rthumb 5.21373 -22.9365
lclavicle -2.98177e-015 -1.51076e-014
lhumerus -39.4001 31.4113 55.528
lradius 28.6641
lwrist 0.376272
lhand -4.38469 47.5731
lfingers 7.12502
lthumb 21.3845 76.413
rfemur -15.071 -2.38322 22.9473
rtibia 45.4732
rfoot -33.1829 -3.14907
rtoes 0.934179
lfemur -15.3707 5.44511 -20.6195
ltibia 39.1493
lfoot -25.1932 -4.66535
ltoes 0.899263
